<svg width="145" height="145" viewBox="0 0 145 145" fill="none" xmlns="http://www.w3.org/2000/svg">
<rect width="145" height="145" rx="72.5" fill="black"/>
<path d="M23 54.8936C23 52.1909 25.184 50 27.8781 50H32.7561C35.4502 50 37.6342 52.1909 37.6342 54.8936V91.1064C37.6342 93.8091 35.4502 96 32.7561 96H27.8781C25.184 96 23 93.8091 23 91.1064V54.8936Z" fill="white"/>
<path d="M23 54.8936C23 52.1909 25.184 50 27.8781 50H72.2683C74.9624 50 77.1463 52.1909 77.1463 54.8936V59.7872C77.1463 62.4899 74.9624 64.6809 72.2683 64.6809H27.878C25.184 64.6809 23 62.4899 23 59.7872L23 54.8936Z" fill="white"/>
<path d="M56.6585 96C59.3526 96 61.5366 93.8091 61.5366 91.1064V54.8936C61.5366 52.1909 59.3526 50 56.6585 50H51.7805C49.0864 50 46.9024 52.1909 46.9024 54.8936V91.1064C46.9024 93.8091 49.0864 96 51.7805 96H56.6585Z" fill="white"/>
<path d="M87.8781 64.6809C90.5721 64.6809 92.7561 62.4899 92.7561 59.7872V54.8936C92.7561 52.1909 90.5721 50 87.8781 50H83C80.3059 50 78.122 52.1909 78.122 54.8936V59.7872C78.122 62.4899 80.3059 64.6809 83 64.6809H87.8781Z" fill="white"/>
<path d="M72.2683 96C74.9624 96 77.1464 93.8091 77.1464 91.1064V86.2128C77.1464 83.5101 74.9624 81.3191 72.2683 81.3191H51.7805C49.0864 81.3191 46.9024 83.5101 46.9024 86.2128V91.1064C46.9024 93.8091 49.0864 96 51.7805 96H72.2683Z" fill="white"/>
<path d="M78.122 70.5532C78.122 67.8505 80.3059 65.6596 83 65.6596H87.8781C90.5721 65.6596 92.7561 67.8505 92.7561 70.5532V91.1064C92.7561 93.8091 90.5721 96 87.8781 96H83C80.3059 96 78.122 93.8091 78.122 91.1064V70.5532Z" fill="white"/>
<path d="M118.122 64.6809C120.816 64.6809 123 62.4899 123 59.7872V54.8936C123 52.1909 120.816 50 118.122 50H98.6098C95.9157 50 93.7317 52.1909 93.7317 54.8936V59.7872C93.7317 62.4899 95.9157 64.6809 98.6098 64.6809H118.122Z" fill="white"/>
<path d="M93.7317 54.8936C93.7317 52.1909 95.9157 50 98.6098 50H103.488C106.182 50 108.366 52.1909 108.366 54.8936V91.1064C108.366 93.8091 106.182 96 103.488 96H98.6098C95.9157 96 93.7317 93.8091 93.7317 91.1064V54.8936Z" fill="white"/>
</svg>
